<?xml version="1.0" encoding="utf-8"?>
<svg version="1.1" xmlns:xlink="http://www.w3.org/1999/xlink" width="25px" height="19px" xmlns="http://www.w3.org/2000/svg">
  <g transform="matrix(1 0 0 1 -548 -2328 )">
    <path d="M 2 17.4166666666666  L 25 17.4166666666666  L 25 19  L 0 19  L 0 0  L 2 0  L 2 17.4166666666666  Z M 23.32763671875 1.69466145833337  C 23.40087890625 1.76888020833337  23.4375 1.86371527777783  23.4375 1.97916666666663  L 23.4375 7.36002604166663  C 23.4375 7.533203125  23.358154296875 7.65483940972217  23.199462890625 7.72493489583337  C 23.040771484375 7.79503038194446  22.8963216145834 7.76410590277783  22.76611328125 7.63216145833337  L 21.2890625 6.13541666666663  L 13.56201171875 13.9654947916666  C 13.4806315104166 14.0479600694445  13.3870442708334 14.0891927083334  13.28125 14.0891927083334  C 13.1754557291666 14.0891927083334  13.0818684895834 14.0479600694445  13.00048828125 13.9654947916666  L 10.15625 11.0833333333334  L 5.078125 16.2291666666666  L 2.734375 13.8541666666666  L 9.87548828125 6.61783854166663  C 9.95686848958331 6.5353732638888  10.0504557291667 6.494140625  10.15625 6.494140625  C 10.2620442708333 6.494140625  10.3556315104167 6.5353732638888  10.43701171875 6.61783854166663  L 13.28125 9.5  L 18.9453125 3.76041666666663  L 17.46826171875 2.263671875  C 17.3380533854166 2.13172743055554  17.3075358072916 1.9853515625  17.376708984375 1.82454427083337  C 17.4458821614584 1.66373697916663  17.56591796875 1.58333333333337  17.73681640625 1.58333333333337  L 23.046875 1.58333333333337  C 23.1608072916666 1.58333333333337  23.25439453125 1.62044270833337  23.32763671875 1.69466145833337  Z " fill-rule="nonzero" fill="#ffffff" stroke="none" transform="matrix(1 0 0 1 548 2328 )" />
  </g>
</svg>